<?xml version="1.0" encoding="UTF-8"?>
<svg width="500px" height="414px" viewBox="0 0 500 414" version="1.1" xmlns="http://www.w3.org/2000/svg" xmlns:xlink="http://www.w3.org/1999/xlink">
    <title>Artboard</title>
    <g id="Artboard" stroke="none" stroke-width="1" fill="none" fill-rule="evenodd">
        <g id="2023997" transform="translate(0.000000, 274.000000)" fill="#000000" fill-rule="nonzero">
            <g id="Group" transform="translate(250.039062, 70.019553) scale(-1, 1) rotate(-180.000000) translate(-250.039062, -70.019553) translate(0.078125, 0.156425)">
                <path d="M198.28125,139.49162 C184.609375,138.044693 170.9375,132.608939 156.132812,122.636872 C147.851562,117.083799 140.429688,111.217877 124.726562,97.8435754 C108.085938,83.6871508 100.351562,77.8994413 90.15625,72.150838 C78.3984375,65.4636872 69.6484375,61.8659218 59.375,59.4413408 C55.46875,58.5418994 53.9453125,58.3854749 49.140625,58.3854749 C44.296875,58.3854749 43.125,58.5027933 41.171875,59.2458101 C37.6953125,60.5363128 35.8203125,61.7877095 33.3984375,64.4078212 C29.609375,68.4748603 27.5390625,74.1843575 27.5,80.4413408 C27.4609375,84.9776536 28.3984375,87.4022346 31.0546875,89.8659218 C34.140625,92.6815642 37.109375,93.7765363 48.359375,96.2011173 C53.515625,97.2960894 56.1328125,98.3910615 57.96875,100.268156 C60.4296875,102.731844 59.5703125,104.061453 53.90625,106.446927 C47.734375,109.027933 42.3828125,109.77095 36.640625,108.832402 C25.390625,106.994413 16.5625,101.24581 9.3359375,91.1564246 C-0.5859375,77.2346369 -2.65625,61.7486034 3.4375,47.5139665 C14.9609375,20.6480447 58.359375,2.93296089 119.296875,0.234636872 C151.25,-1.17318436 191.523438,4.30167598 212.1875,12.8268156 C219.726562,15.9162011 223.789062,18.3798883 232.96875,25.3798883 C235.9375,27.6480447 242.070312,30.698324 245.039062,31.3631285 C248.320312,32.1452514 252.539062,32.2625698 253.789062,31.5977654 C254.296875,31.3240223 256.210938,29.9944134 258.085938,28.6256983 C289.570312,5.59217877 356.875,-5.27932961 415.15625,3.24581006 C441.09375,7.03910615 462.734375,14.6256983 477.65625,25.2234637 C482.265625,28.4692737 489.296875,35.4692737 492.03125,39.4581006 C501.289062,53.027933 502.382812,67.3407821 495.234375,81.6145251 C491.484375,89.0837989 485.117188,96.7877095 478.476562,101.793296 C474.6875,104.687151 467.695312,108.24581 464.179688,109.145251 C456.601562,111.061453 450,109.77095 445.15625,105.469274 C443.125,103.670391 440.9375,100.620112 440.9375,99.5251397 C440.9375,97.9608939 446.015625,96.3575419 457.578125,94.1675978 C464.0625,92.9553073 466.953125,91.8603352 469.375,89.6703911 C473.28125,86.1117318 474.023438,79.7374302 471.171875,74.0670391 C470,71.7988827 465.546875,67.027933 461.757812,63.9776536 C453.632812,57.5251397 444.296875,56.1173184 433.320312,59.7932961 C429.53125,61.0446927 422.578125,64.5642458 418.632812,67.2234637 C413.984375,70.3519553 398.554688,82.0837989 379.21875,97.2178771 C370.9375,103.709497 361.40625,110.98324 358.046875,113.407821 C338.007812,127.681564 321.679688,135.346369 304.804688,138.357542 C300.429688,139.139665 298.476562,139.256983 290.742188,139.256983 C283.90625,139.256983 280.859375,139.100559 278.046875,138.553073 C269.0625,136.910615 260.429688,134.094972 252.304688,130.223464 C246.367188,127.368715 245.820312,127.368715 240.546875,130.223464 C232.617188,134.486034 222.265625,137.96648 214.296875,139.061453 C209.84375,139.687151 202.148438,139.882682 198.28125,139.49162 Z" id="Path"></path>
            </g>
        </g>
        <g id="19530010581579105134" transform="translate(99.000000, 0.000000)">
            <path d="M8.88888889,160 C3.97985185,160 0,156.01445 0,151.098385 L0,26.7048447 C0,11.9797933 11.9626667,0 26.6666667,0 L39.1111111,0 C44.0201481,0 48,3.98554971 48,8.9016149 C48,13.8176801 44.0201481,17.8032298 39.1111111,17.8032298 L26.6666667,17.8032298 C21.7653333,17.8032298 17.7777778,21.7964942 17.7777778,26.7048447 L17.7777778,151.098385 C17.7777778,156.01445 13.7979259,160 8.88888889,160 Z" id="Path" fill="#E50058" fill-rule="nonzero"></path>
            <path d="M294.111111,160 C289.202074,160 285.222222,156.01445 285.222222,151.098385 L285.222222,26.7048447 C285.222222,21.7964942 281.234667,17.8032298 276.333333,17.8032298 L263.888889,17.8032298 C258.979852,17.8032298 255,13.8176801 255,8.9016149 C255,3.98554971 258.979852,0 263.888889,0 L276.333333,0 C291.037333,0 303,11.9797933 303,26.7048447 L303,151.098385 C303,156.01445 299.020148,160 294.111111,160 Z" id="Path" fill="#B40042" fill-rule="nonzero"></path>
            <path d="M176.042402,161 C171.771205,161 167.991416,157.984053 167.238201,153.706869 C165.898756,146.10136 159.226576,140.581696 151.372391,140.581696 C143.804464,140.581696 137.347573,145.647151 135.670583,152.899257 C134.576245,157.634165 129.782032,160.604399 124.965156,159.523674 C120.147685,158.447639 117.12946,153.737345 118.224394,149.003023 C121.765038,133.692958 135.395656,123 151.372391,123 C167.953248,123 182.040089,134.653537 184.867476,150.70909 C185.710146,155.492643 182.446216,160.042352 177.578053,160.870477 C177.062194,160.957803 176.549316,161 176.042402,161 L176.042402,161 Z" id="Path" fill="#E50058" fill-rule="nonzero"></path>
            <path d="M184.869453,150.707869 C182.091314,134.692353 168.278754,123.059783 152,123 L152,140.586297 C159.681739,140.646081 166.191478,146.142055 167.503883,153.706419 C168.245855,157.983866 171.969231,161 176.176681,161 C176.676029,161 177.181252,160.9578 177.689412,160.869883 C182.484331,160.041707 185.699546,155.491717 184.869453,150.707869 L184.869453,150.707869 Z" id="Path" fill="#B40042" fill-rule="nonzero"></path>
            <path d="M39.0630553,119 C51.3427638,119 61.9574271,126.1287 67,136.474153 C72.0419799,126.1287 82.6566432,119 94.9363518,119 C112.09201,119 126,132.912176 126,150.073729 C126,182.428109 81.1991357,220 67,220 C52.8008643,220 8,179.244573 8,150.073729 C8,132.912176 21.907397,119 39.0630553,119 Z" id="Path" fill="#FE7CB8"></path>
            <path d="M67.5,229 C55.6518341,229 37.9703712,214.641889 26.4287555,202.345963 C16.5584279,191.830586 0,171.13921 0,150.704134 C0,128.811387 17.8205895,111 39.7259607,111 C50.3679694,111 60.2229694,115.128495 67.5,122.265423 C74.7776201,115.128495 84.6326201,111 95.2740393,111 C117.178821,111 135,128.810798 135,150.704134 C135,172.876748 118.385568,193.377814 108.482817,203.624518 C97.169345,215.330659 79.6476419,229 67.5,229 Z M39.7259607,128.675872 C27.5724236,128.675872 17.6855895,138.557864 17.6855895,150.704134 C17.6855895,160.884847 25.6034279,175.485118 38.8658515,189.758385 C52.3941485,204.31859 64.3472489,211.063114 67.5188646,211.322949 C70.9481004,211.155028 83.3321397,204.286774 96.0174236,191.079951 C109.552205,176.988745 117.31441,162.271814 117.31441,150.704134 C117.31441,138.557864 107.427576,128.675872 95.2740393,128.675872 C86.7737555,128.675872 79.1766157,133.42479 75.4484934,141.068427 C73.966441,144.105731 70.8814847,146.033579 67.5,146.033579 C64.1185153,146.033579 61.0329694,144.10632 59.5515066,141.068427 C55.8227948,133.42479 48.2262445,128.675872 39.7259607,128.675872 L39.7259607,128.675872 Z" id="Shape" fill="#FF415B" fill-rule="nonzero"></path>
            <path d="M208.063648,119 C220.343357,119 230.95802,126.1287 236,136.474153 C241.04198,126.1287 251.656643,119 263.936352,119 C281.09201,119 295,132.912176 295,150.073729 C295,182.428109 250.199136,220 236,220 C221.800864,220 177,179.244573 177,150.073729 C177,132.912176 190.907397,119 208.063648,119 Z" id="Path" fill="#FF3A80"></path>
            <path d="M235.5,229 C223.651834,229 205.970371,214.641889 194.428755,202.345963 C184.558428,191.830586 168,171.13921 168,150.704134 C168,128.811387 185.82059,111 207.725961,111 C218.367969,111 228.222969,115.128495 235.5,122.265423 C242.77762,115.128495 252.63262,111 263.274039,111 C285.178821,111 303,128.810798 303,150.704134 C303,172.876748 286.385568,193.377814 276.482817,203.624518 C265.169345,215.330659 247.647642,229 235.5,229 Z M207.725961,128.675872 C195.573013,128.675872 185.68559,138.557864 185.68559,150.704723 C185.68559,160.885436 193.603428,175.485707 206.865852,189.758974 C220.394148,204.319179 232.347249,211.063703 235.518865,211.323538 C238.9481,211.155618 251.33214,204.287363 264.017424,191.08054 C277.552205,176.988745 285.31441,162.271814 285.31441,150.704134 C285.31441,138.557864 275.427576,128.675872 263.274039,128.675872 C254.773755,128.675872 247.176616,133.42479 243.448493,141.068427 C241.966441,144.105731 238.881485,146.033579 235.5,146.033579 C232.118515,146.033579 229.032969,144.10632 227.551507,141.068427 C223.822795,133.42479 216.226245,128.675872 207.725961,128.675872 L207.725961,128.675872 Z" id="Shape" fill="#E50058" fill-rule="nonzero"></path>
        </g>
    </g>
</svg>