
<svg version="1.0" xmlns="http://www.w3.org/2000/svg"
 width="400.000000pt" height="356.000000pt" viewBox="0 0 400.000000 356.000000"
 preserveAspectRatio="xMidYMid meet">
<metadata>
Created by potrace 1.16, written by Peter Selinger 2001-2019
</metadata>
<g transform="translate(0.000000,356.000000) scale(0.100000,-0.100000)"
fill="#000000" stroke="none">
<path d="M683 3553 c-29 -2 -53 -8 -53 -14 0 -5 -9 -9 -20 -9 -11 0 -20 -4
-20 -10 0 -5 -11 -10 -24 -10 -14 0 -28 -4 -31 -10 -3 -5 -15 -10 -26 -10 -10
0 -19 -4 -19 -10 0 -5 -8 -10 -18 -10 -10 0 -24 -9 -32 -20 -8 -11 -21 -20
-30 -20 -9 0 -22 -9 -30 -20 -8 -11 -20 -20 -27 -20 -17 0 -183 -166 -183
-183 0 -7 -9 -19 -20 -27 -11 -8 -20 -21 -20 -30 0 -9 -9 -22 -20 -30 -11 -8
-20 -22 -20 -32 0 -10 -4 -18 -10 -18 -5 0 -10 -9 -10 -19 0 -11 -4 -23 -10
-26 -5 -3 -10 -17 -10 -31 0 -13 -4 -24 -10 -24 -5 0 -10 -9 -10 -19 0 -11 -6
-21 -12 -23 -19 -7 -19 -569 0 -575 6 -3 12 -18 12 -34 0 -16 5 -29 10 -29 6
0 10 -9 10 -20 0 -11 5 -20 10 -20 6 0 10 -9 10 -20 0 -11 5 -20 10 -20 6 0
10 -9 10 -20 0 -11 5 -20 10 -20 6 0 10 -8 10 -18 0 -10 9 -24 20 -32 11 -8
20 -20 20 -27 0 -17 206 -223 223 -223 7 0 19 -9 27 -20 8 -11 22 -20 32 -20
10 0 18 -4 18 -10 0 -5 9 -10 20 -10 11 0 20 -4 20 -10 0 -5 9 -10 20 -10 11
0 20 -4 20 -10 0 -5 9 -10 20 -10 11 0 20 -4 20 -10 0 -5 14 -10 30 -10 17 0
30 -4 30 -10 0 -5 13 -10 29 -10 16 0 31 -6 34 -12 3 -10 57 -13 227 -13 170
0 224 3 228 13 2 7 20 12 43 12 21 0 39 5 39 10 0 6 14 10 30 10 17 0 30 5 30
10 0 6 9 10 20 10 11 0 20 5 20 10 0 6 9 10 20 10 11 0 20 5 20 10 0 6 8 10
18 10 10 0 24 9 32 20 8 11 21 20 30 20 9 0 22 9 30 20 8 11 20 20 27 20 16 0
143 125 143 141 0 6 14 24 30 39 17 15 30 34 30 42 0 7 9 20 20 28 11 8 20 22
20 32 0 10 5 18 10 18 6 0 10 9 10 20 0 11 5 20 10 20 6 0 10 9 10 20 0 11 5
20 10 20 6 0 10 14 10 30 0 17 5 30 10 30 6 0 10 14 10 30 0 17 5 30 10 30 6
0 10 30 10 70 0 40 4 70 10 70 6 0 10 7 10 16 0 26 26 44 64 44 20 0 36 5 36
10 0 6 18 10 40 10 22 0 40 -4 40 -10 0 -5 12 -10 26 -10 29 0 54 -21 54 -44
0 -9 5 -16 10 -16 6 0 10 -30 10 -70 0 -40 4 -70 10 -70 6 0 10 -13 10 -30 0
-16 5 -30 10 -30 6 0 10 -11 10 -24 0 -14 5 -28 10 -31 6 -3 10 -15 10 -26 0
-10 5 -19 10 -19 6 0 10 -9 10 -20 0 -11 5 -20 10 -20 6 0 10 -8 10 -18 0 -10
9 -24 20 -32 11 -8 20 -21 20 -28 0 -8 13 -27 30 -42 16 -15 30 -33 30 -40 0
-15 129 -140 144 -140 6 0 18 -9 26 -20 8 -11 21 -20 30 -20 9 0 22 -9 30 -20
8 -11 22 -20 32 -20 10 0 18 -4 18 -10 0 -5 9 -10 20 -10 11 0 20 -4 20 -10 0
-5 9 -10 20 -10 11 0 20 -4 20 -10 0 -5 14 -10 30 -10 17 0 30 -4 30 -10 0 -5
18 -10 39 -10 23 0 41 -5 44 -12 3 -10 57 -13 227 -13 170 0 224 3 228 13 2 6
17 12 33 12 16 0 29 5 29 10 0 6 14 10 30 10 17 0 30 5 30 10 0 6 9 10 20 10
11 0 20 5 20 10 0 6 9 10 20 10 11 0 20 5 20 10 0 6 9 10 20 10 11 0 20 5 20
10 0 6 8 10 18 10 10 0 24 9 32 20 8 11 20 20 27 20 17 0 223 206 223 223 0 7
9 19 20 27 11 8 20 22 20 32 0 10 5 18 10 18 6 0 10 9 10 20 0 11 5 20 10 20
6 0 10 9 10 20 0 11 5 20 10 20 6 0 10 9 10 20 0 11 5 20 10 20 6 0 10 13 10
29 0 16 6 31 13 34 9 3 12 69 12 287 0 218 -3 284 -12 288 -7 2 -13 12 -13 23
0 10 -4 19 -10 19 -5 0 -10 11 -10 24 0 14 -4 28 -10 31 -6 3 -10 15 -10 26 0
10 -4 19 -10 19 -5 0 -10 8 -10 18 0 10 -9 24 -20 32 -11 8 -20 21 -20 30 0 9
-9 22 -20 30 -11 8 -20 20 -20 27 0 17 -166 183 -183 183 -7 0 -19 9 -27 20
-8 11 -21 20 -30 20 -9 0 -22 9 -30 20 -8 11 -22 20 -32 20 -10 0 -18 5 -18
10 0 6 -9 10 -19 10 -11 0 -23 5 -26 10 -3 6 -17 10 -31 10 -13 0 -24 5 -24
10 0 6 -9 10 -19 10 -11 0 -21 6 -23 13 -4 9 -70 12 -288 12 -218 0 -284 -3
-287 -12 -3 -7 -18 -13 -34 -13 -16 0 -29 -4 -29 -10 0 -5 -9 -10 -20 -10 -11
0 -20 -4 -20 -10 0 -5 -9 -10 -20 -10 -11 0 -20 -4 -20 -10 0 -5 -9 -10 -20
-10 -11 0 -20 -4 -20 -10 0 -5 -8 -10 -18 -10 -10 0 -24 -9 -32 -20 -8 -11
-20 -20 -27 -20 -17 0 -223 -206 -223 -223 0 -7 -9 -19 -20 -27 -11 -8 -20
-22 -20 -32 0 -10 -4 -18 -10 -18 -5 0 -10 -9 -10 -20 0 -11 -4 -20 -10 -20
-5 0 -10 -9 -10 -20 0 -11 -4 -20 -10 -20 -5 0 -10 -9 -10 -20 0 -11 -4 -20
-10 -20 -5 0 -10 -13 -10 -30 0 -16 -4 -30 -10 -30 -5 0 -10 -13 -10 -29 0
-17 -4 -33 -10 -36 -6 -3 -10 -29 -10 -56 0 -30 -6 -56 -14 -65 -16 -16 -86
-19 -86 -4 0 6 -22 10 -50 10 -27 0 -50 -4 -50 -10 0 -15 -70 -12 -86 4 -8 9
-14 35 -14 65 0 27 -4 53 -10 56 -5 3 -10 19 -10 36 0 16 -4 29 -10 29 -5 0
-10 14 -10 30 0 17 -4 30 -10 30 -5 0 -10 9 -10 20 0 11 -4 20 -10 20 -5 0
-10 9 -10 20 0 11 -4 20 -10 20 -5 0 -10 9 -10 20 0 11 -4 20 -10 20 -5 0 -10
8 -10 18 0 10 -9 24 -20 32 -11 8 -20 20 -20 27 0 17 -206 223 -223 223 -7 0
-19 9 -27 20 -8 11 -22 20 -32 20 -10 0 -18 5 -18 10 0 6 -9 10 -20 10 -11 0
-20 5 -20 10 0 6 -9 10 -20 10 -11 0 -20 5 -20 10 0 6 -9 10 -20 10 -11 0 -20
5 -20 10 0 6 -13 10 -29 10 -16 0 -31 6 -33 12 -3 9 -64 13 -239 14 -129 1
-258 0 -286 -3z m412 -133 c3 -5 22 -10 41 -10 19 0 34 -4 34 -10 0 -5 9 -10
20 -10 11 0 20 -4 20 -10 0 -5 14 -10 30 -10 17 0 30 -4 30 -10 0 -5 8 -10 18
-10 10 0 24 -9 32 -20 8 -11 21 -20 30 -20 9 0 22 -9 30 -20 8 -11 20 -20 27
-20 17 0 143 -126 143 -143 0 -7 9 -19 20 -27 11 -8 20 -21 20 -30 0 -9 9 -22
20 -30 11 -8 20 -22 20 -32 0 -10 5 -18 10 -18 6 0 10 -9 10 -20 0 -11 5 -20
10 -20 6 0 10 -13 10 -30 0 -16 5 -30 10 -30 6 0 10 -13 10 -30 0 -16 5 -30
10 -30 6 0 10 -20 10 -44 0 -25 5 -48 10 -51 6 -3 10 -50 10 -106 0 -59 -4
-99 -10 -99 -5 0 -10 -18 -10 -39 0 -22 -4 -43 -10 -46 -5 -3 -10 -22 -10 -41
0 -19 -4 -34 -10 -34 -5 0 -10 -13 -10 -30 0 -16 -4 -30 -10 -30 -5 0 -10 -8
-10 -18 0 -10 -9 -24 -20 -32 -11 -8 -20 -21 -20 -30 0 -9 -9 -22 -20 -30 -11
-8 -20 -20 -20 -27 0 -17 -166 -183 -183 -183 -7 0 -19 -9 -27 -20 -8 -11 -21
-20 -30 -20 -9 0 -22 -9 -30 -20 -8 -11 -22 -20 -32 -20 -10 0 -18 -4 -18 -10
0 -5 -13 -10 -30 -10 -16 0 -30 -4 -30 -10 0 -5 -15 -10 -34 -10 -19 0 -38 -5
-41 -10 -3 -5 -24 -10 -46 -10 -21 0 -39 -4 -39 -10 0 -13 -197 -13 -205 0 -3
6 -26 10 -51 10 -24 0 -44 5 -44 10 0 6 -13 10 -30 10 -16 0 -30 5 -30 10 0 6
-13 10 -30 10 -16 0 -30 5 -30 10 0 6 -9 10 -20 10 -11 0 -20 5 -20 10 0 6 -8
10 -18 10 -10 0 -24 9 -32 20 -8 11 -21 20 -30 20 -9 0 -22 9 -30 20 -8 11
-20 20 -27 20 -17 0 -143 126 -143 143 0 7 -9 19 -20 27 -11 8 -20 21 -20 30
0 9 -9 22 -20 30 -11 8 -20 22 -20 32 0 10 -4 18 -10 18 -5 0 -10 14 -10 30 0
17 -4 30 -10 30 -5 0 -10 9 -10 20 0 11 -4 20 -10 20 -5 0 -10 15 -10 34 0 19
-4 38 -10 41 -14 8 -14 345 0 345 6 0 10 14 10 30 0 17 5 30 10 30 6 0 10 14
10 30 0 17 5 30 10 30 6 0 10 9 10 20 0 11 5 20 10 20 6 0 10 9 10 20 0 11 5
20 10 20 6 0 10 9 10 20 0 11 5 20 10 20 6 0 10 7 10 16 0 8 18 33 40 54 22
21 40 43 40 50 0 14 46 60 60 60 7 0 29 18 50 40 21 22 46 40 54 40 9 0 16 5
16 10 0 6 9 10 20 10 11 0 20 5 20 10 0 6 9 10 20 10 11 0 20 5 20 10 0 6 9
10 20 10 11 0 20 5 20 10 0 6 14 10 30 10 17 0 30 5 30 10 0 6 14 10 30 10 17
0 30 5 30 10 0 6 63 10 169 10 103 0 172 -4 176 -10z m2155 0 c0 -5 14 -10 30
-10 17 0 30 -4 30 -10 0 -5 14 -10 30 -10 17 0 30 -4 30 -10 0 -5 9 -10 20
-10 11 0 20 -4 20 -10 0 -5 9 -10 20 -10 11 0 20 -4 20 -10 0 -5 9 -10 20 -10
11 0 20 -4 20 -10 0 -5 7 -10 16 -10 8 0 33 -18 54 -40 21 -22 43 -40 50 -40
14 0 60 -46 60 -60 0 -7 18 -29 40 -50 22 -21 40 -46 40 -54 0 -9 5 -16 10
-16 6 0 10 -9 10 -20 0 -11 5 -20 10 -20 6 0 10 -9 10 -20 0 -11 5 -20 10 -20
6 0 10 -9 10 -20 0 -11 5 -20 10 -20 6 0 10 -13 10 -30 0 -16 5 -30 10 -30 6
0 10 -13 10 -30 0 -16 5 -30 10 -30 6 0 10 -63 10 -169 0 -103 -4 -172 -10
-176 -5 -3 -10 -22 -10 -41 0 -19 -4 -34 -10 -34 -5 0 -10 -9 -10 -20 0 -11
-4 -20 -10 -20 -5 0 -10 -13 -10 -30 0 -16 -4 -30 -10 -30 -5 0 -10 -8 -10
-18 0 -10 -9 -24 -20 -32 -11 -8 -20 -21 -20 -30 0 -9 -9 -22 -20 -30 -11 -8
-20 -20 -20 -27 0 -8 -29 -43 -65 -78 -35 -36 -70 -65 -78 -65 -7 0 -19 -9
-27 -20 -8 -11 -21 -20 -30 -20 -9 0 -22 -9 -30 -20 -8 -11 -22 -20 -32 -20
-10 0 -18 -4 -18 -10 0 -5 -9 -10 -20 -10 -11 0 -20 -4 -20 -10 0 -5 -13 -10
-30 -10 -16 0 -30 -4 -30 -10 0 -5 -13 -10 -30 -10 -16 0 -30 -4 -30 -10 0 -5
-20 -10 -44 -10 -25 0 -48 -5 -51 -10 -8 -13 -205 -13 -205 0 0 6 -18 10 -39
10 -22 0 -43 5 -46 10 -3 6 -22 10 -41 10 -19 0 -34 5 -34 10 0 6 -13 10 -30
10 -16 0 -30 5 -30 10 0 6 -8 10 -18 10 -10 0 -24 9 -32 20 -8 11 -21 20 -30
20 -9 0 -22 9 -30 20 -8 11 -20 20 -27 20 -17 0 -183 166 -183 183 0 7 -9 19
-20 27 -11 8 -20 21 -20 30 0 9 -9 22 -20 30 -11 8 -20 22 -20 32 0 10 -4 18
-10 18 -5 0 -10 14 -10 30 0 17 -4 30 -10 30 -5 0 -10 15 -10 34 0 19 -4 38
-10 41 -5 3 -10 24 -10 46 0 21 -4 39 -10 39 -6 0 -10 40 -10 99 0 56 4 103
10 106 6 3 10 26 10 51 0 24 5 44 10 44 6 0 10 14 10 30 0 17 5 30 10 30 6 0
10 14 10 30 0 17 5 30 10 30 6 0 10 9 10 20 0 11 5 20 10 20 6 0 10 8 10 18 0
10 9 24 20 32 11 8 20 21 20 30 0 9 9 22 20 30 11 8 20 20 20 27 0 17 126 143
143 143 7 0 19 9 27 20 8 11 21 20 30 20 9 0 22 9 30 20 8 11 22 20 32 20 10
0 18 5 18 10 0 6 14 10 30 10 17 0 30 5 30 10 0 6 9 10 20 10 11 0 20 5 20 10
0 6 15 10 34 10 19 0 38 5 41 10 4 6 73 10 176 10 106 0 169 -4 169 -10z"/>
<path d="M463 2815 c-7 -8 -13 -28 -13 -45 0 -26 24 -54 165 -195 159 -159
166 -165 206 -165 48 0 69 18 69 59 0 27 -23 54 -165 196 -162 162 -166 165
-207 165 -24 -1 -49 -7 -55 -15z"/>
<path d="M430 2530 c0 -11 -4 -20 -10 -20 -5 0 -10 -9 -10 -20 0 -11 5 -20 10
-20 6 0 10 -7 10 -15 0 -8 74 -89 165 -180 125 -126 171 -165 190 -165 14 0
25 5 25 10 0 6 9 10 20 10 17 0 20 7 20 45 0 45 0 46 -165 210 -164 165 -165
165 -210 165 -38 0 -45 -3 -45 -20z"/>
<path d="M913 2365 c-37 -39 -29 -59 52 -140 61 -61 80 -75 106 -75 41 0 59
21 59 70 0 38 -6 47 -66 106 -75 73 -111 82 -151 39z"/>
<path d="M1483 1513 c-18 -2 -33 -8 -33 -14 0 -5 -8 -9 -18 -9 -10 0 -24 -9
-32 -20 -8 -11 -21 -20 -30 -20 -9 0 -22 -9 -30 -20 -8 -11 -20 -20 -27 -20
-8 0 -108 -94 -223 -210 -115 -115 -215 -210 -221 -210 -6 0 -28 -18 -49 -40
-21 -22 -44 -40 -50 -40 -7 0 -25 -13 -40 -30 -15 -16 -35 -30 -44 -30 -9 0
-16 -4 -16 -10 0 -5 -9 -10 -20 -10 -11 0 -20 -4 -20 -10 0 -5 -11 -10 -24
-10 -14 0 -28 -5 -31 -10 -3 -6 -26 -10 -50 -10 -24 0 -47 -4 -50 -10 -3 -5
-33 -10 -66 -10 -33 0 -59 4 -59 10 0 6 -9 10 -20 10 -11 0 -20 5 -20 10 0 6
-9 10 -20 10 -11 0 -20 5 -20 10 0 6 -9 10 -20 10 -11 0 -20 5 -20 10 0 6 -22
10 -50 10 -27 0 -50 -4 -50 -10 0 -5 -9 -10 -20 -10 -11 0 -20 -4 -20 -10 0
-5 -7 -10 -15 -10 -9 0 -28 -12 -43 -27 l-27 -27 0 -160 c0 -119 3 -160 13
-164 6 -2 12 -11 12 -21 0 -9 9 -23 20 -31 11 -8 20 -20 20 -27 0 -17 126
-143 143 -143 7 0 19 -9 27 -20 8 -11 22 -20 32 -20 10 0 18 -4 18 -10 0 -5 9
-10 20 -10 11 0 20 -4 20 -10 0 -5 9 -10 20 -10 11 0 20 -4 20 -10 0 -5 14
-10 30 -10 17 0 30 -4 30 -10 0 -5 14 -10 30 -10 17 0 30 -4 30 -10 0 -5 18
-10 40 -10 22 0 40 -4 40 -10 0 -5 18 -10 40 -10 22 0 40 -4 40 -10 0 -6 27
-10 60 -10 33 0 60 -4 60 -10 0 -6 97 -10 270 -10 173 0 270 4 270 10 0 6 23
10 50 10 28 0 50 5 50 10 0 6 23 10 50 10 28 0 50 5 50 10 0 6 14 10 30 10 17
0 30 5 30 10 0 6 14 10 30 10 17 0 30 5 30 10 0 6 14 10 30 10 17 0 30 5 30
10 0 6 9 10 20 10 11 0 20 5 20 10 0 6 14 10 30 10 17 0 30 5 30 10 0 6 9 10
20 10 11 0 20 5 20 10 0 6 6 10 13 10 7 0 23 9 35 20 12 11 26 20 33 20 6 0
24 14 39 30 15 17 33 30 39 30 16 0 53 -22 72 -42 9 -10 23 -18 30 -18 8 0 21
-9 29 -20 8 -11 22 -20 32 -20 10 0 18 -4 18 -10 0 -5 9 -10 20 -10 11 0 20
-4 20 -10 0 -5 9 -10 20 -10 11 0 20 -4 20 -10 0 -5 9 -10 20 -10 11 0 20 -4
20 -10 0 -5 14 -10 30 -10 17 0 30 -4 30 -10 0 -5 14 -10 30 -10 17 0 30 -4
30 -10 0 -5 14 -10 30 -10 17 0 30 -4 30 -10 0 -5 18 -10 40 -10 22 0 40 -4
40 -10 0 -5 22 -10 49 -10 28 0 51 -5 53 -11 6 -17 590 -18 596 -1 2 7 23 12
53 12 27 0 49 5 49 10 0 6 18 10 40 10 22 0 40 5 40 10 0 6 18 10 40 10 22 0
40 5 40 10 0 6 14 10 30 10 17 0 30 5 30 10 0 6 14 10 30 10 17 0 30 5 30 10
0 6 9 10 20 10 11 0 20 5 20 10 0 6 9 10 20 10 11 0 20 5 20 10 0 6 8 10 18
10 10 0 24 9 32 20 8 11 20 20 27 20 17 0 143 126 143 143 0 7 9 19 20 27 11
8 20 22 20 31 0 10 6 19 13 21 9 3 13 45 15 150 3 122 1 147 -12 161 -9 8 -16
21 -16 27 0 17 -26 40 -44 40 -9 0 -16 5 -16 10 0 6 -9 10 -20 10 -11 0 -20 5
-20 10 0 6 -22 10 -50 10 -27 0 -50 -4 -50 -10 0 -5 -9 -10 -20 -10 -11 0 -20
-4 -20 -10 0 -5 -9 -10 -20 -10 -11 0 -20 -4 -20 -10 0 -5 -9 -10 -20 -10 -11
0 -20 -4 -20 -10 0 -6 -26 -10 -59 -10 -33 0 -63 5 -66 10 -3 6 -26 10 -50 10
-24 0 -47 5 -50 10 -3 5 -17 10 -31 10 -13 0 -24 5 -24 10 0 6 -9 10 -20 10
-11 0 -20 5 -20 10 0 6 -7 10 -16 10 -9 0 -29 14 -44 30 -15 17 -33 30 -40 30
-6 0 -29 18 -50 40 -21 22 -43 40 -49 40 -6 0 -110 99 -231 220 -121 121 -226
220 -233 220 -7 0 -19 9 -27 20 -8 11 -22 20 -32 20 -10 0 -18 5 -18 10 0 6
-9 10 -19 10 -11 0 -21 6 -24 13 -3 9 -55 12 -217 12 -162 0 -214 -3 -218 -12
-2 -7 -12 -13 -23 -13 -10 0 -19 -4 -19 -10 0 -5 -9 -10 -20 -10 -11 0 -20 -4
-20 -10 0 -5 -13 -10 -30 -10 -16 0 -30 5 -30 10 0 6 -9 10 -20 10 -11 0 -20
5 -20 10 0 6 -9 10 -19 10 -11 0 -21 5 -23 12 -4 12 -337 21 -405 11z m227
-213 c0 -5 18 -10 40 -10 22 0 40 -4 40 -10 0 -5 9 -10 20 -10 11 0 20 -4 20
-10 0 -5 7 -10 16 -10 18 0 44 -23 44 -40 0 -17 26 -40 44 -40 9 0 16 -4 16
-10 0 -5 23 -10 50 -10 28 0 50 5 50 10 0 6 7 10 16 10 8 0 33 18 54 40 21 22
46 40 54 40 9 0 16 5 16 10 0 6 9 10 20 10 11 0 20 5 20 10 0 6 40 10 100 10
60 0 100 -4 100 -10 0 -5 8 -10 18 -10 10 0 24 -9 32 -20 8 -11 21 -20 28 -20
7 0 31 -18 52 -40 21 -22 43 -40 49 -40 6 0 106 -94 221 -210 116 -116 215
-210 221 -210 6 0 28 -18 49 -40 21 -22 46 -40 54 -40 9 0 16 -4 16 -10 0 -5
8 -10 18 -10 10 0 24 -9 32 -20 8 -12 26 -20 42 -20 15 0 28 -4 28 -10 0 -5 9
-10 20 -10 11 0 20 -4 20 -10 0 -5 23 -10 50 -10 28 0 50 -4 50 -10 0 -13 267
-13 275 0 12 19 45 11 45 -10 0 -11 -4 -20 -10 -20 -5 0 -10 -7 -10 -16 0 -18
-24 -44 -40 -44 -7 0 -25 -13 -40 -30 -15 -16 -35 -30 -44 -30 -9 0 -16 -4
-16 -10 0 -5 -9 -10 -20 -10 -11 0 -20 -4 -20 -10 0 -5 -9 -10 -20 -10 -11 0
-20 -4 -20 -10 0 -5 -13 -10 -30 -10 -16 0 -30 -4 -30 -10 0 -5 -15 -10 -34
-10 -19 0 -38 -4 -41 -10 -3 -5 -19 -10 -36 -10 -16 0 -29 -4 -29 -10 0 -6
-33 -10 -80 -10 -47 0 -80 -4 -80 -10 0 -6 -73 -10 -200 -10 -127 0 -200 4
-200 10 0 6 -22 10 -49 10 -28 0 -53 5 -56 10 -3 6 -22 10 -41 10 -19 0 -34 5
-34 10 0 6 -18 10 -40 10 -22 0 -40 5 -40 10 0 6 -9 10 -19 10 -11 0 -23 4
-26 10 -3 5 -17 10 -31 10 -13 0 -24 5 -24 10 0 6 -13 10 -30 10 -16 0 -30 5
-30 10 0 6 -9 10 -20 10 -11 0 -20 5 -20 10 0 6 -8 10 -18 10 -10 0 -24 9 -32
20 -8 11 -20 20 -28 20 -15 0 -82 65 -82 80 0 16 -47 60 -65 60 -8 0 -15 5
-15 10 0 6 -25 10 -56 10 -49 0 -60 -4 -80 -27 -13 -16 -24 -32 -24 -36 0 -13
-68 -77 -82 -77 -8 0 -20 -9 -28 -20 -8 -11 -22 -20 -32 -20 -10 0 -18 -4 -18
-10 0 -5 -9 -10 -20 -10 -11 0 -20 -4 -20 -10 0 -5 -9 -10 -20 -10 -11 0 -20
-4 -20 -10 0 -5 -9 -10 -20 -10 -11 0 -20 -4 -20 -10 0 -5 -13 -10 -30 -10
-16 0 -30 -4 -30 -10 0 -5 -13 -10 -30 -10 -16 0 -30 -4 -30 -10 0 -5 -13 -10
-29 -10 -17 0 -33 -4 -36 -10 -3 -5 -22 -10 -41 -10 -19 0 -34 -4 -34 -10 0
-6 -30 -10 -70 -10 -40 0 -70 -4 -70 -10 0 -6 -60 -10 -160 -10 -100 0 -160 4
-160 10 0 6 -33 10 -80 10 -47 0 -80 4 -80 10 0 6 -18 10 -40 10 -22 0 -40 5
-40 10 0 6 -18 10 -40 10 -22 0 -40 5 -40 10 0 6 -13 10 -30 10 -16 0 -30 5
-30 10 0 6 -9 10 -20 10 -11 0 -20 5 -20 10 0 6 -13 10 -28 10 -16 0 -34 8
-42 20 -8 11 -20 20 -27 20 -19 0 -103 86 -103 105 0 8 -4 15 -10 15 -5 0 -10
5 -10 10 0 13 77 13 85 0 8 -13 175 -13 175 0 0 6 30 10 70 10 40 0 70 4 70
10 0 6 14 10 30 10 17 0 30 5 30 10 0 6 9 10 20 10 11 0 20 5 20 10 0 6 9 10
20 10 11 0 20 5 20 10 0 6 8 10 18 10 10 0 24 9 32 20 8 11 20 20 28 20 7 0
35 23 62 50 27 28 54 50 60 50 5 0 105 95 220 210 115 116 215 210 221 210 6
0 24 14 39 30 15 17 35 30 44 30 9 0 16 5 16 10 0 6 9 10 20 10 11 0 20 5 20
10 0 6 14 10 30 10 17 0 30 5 30 10 0 6 18 10 40 10 22 0 40 -4 40 -10z"/>
</g>
</svg>
