<?xml version="1.0" encoding="UTF-8"?>
<svg width="500px" height="414px" viewBox="0 0 500 414" version="1.1" xmlns="http://www.w3.org/2000/svg" xmlns:xlink="http://www.w3.org/1999/xlink">
    <title>Artboard</title>
    <g id="Artboard" stroke="none" stroke-width="1" fill="none" fill-rule="evenodd">
        <g id="2023997" transform="translate(0.000000, 274.000000)" fill="#000000" fill-rule="nonzero">
            <g id="Group" transform="translate(250.039062, 70.019553) scale(-1, 1) rotate(-180.000000) translate(-250.039062, -70.019553) translate(0.078125, 0.156425)">
                <path d="M198.28125,139.49162 C184.609375,138.044693 170.9375,132.608939 156.132812,122.636872 C147.851562,117.083799 140.429688,111.217877 124.726562,97.8435754 C108.085938,83.6871508 100.351562,77.8994413 90.15625,72.150838 C78.3984375,65.4636872 69.6484375,61.8659218 59.375,59.4413408 C55.46875,58.5418994 53.9453125,58.3854749 49.140625,58.3854749 C44.296875,58.3854749 43.125,58.5027933 41.171875,59.2458101 C37.6953125,60.5363128 35.8203125,61.7877095 33.3984375,64.4078212 C29.609375,68.4748603 27.5390625,74.1843575 27.5,80.4413408 C27.4609375,84.9776536 28.3984375,87.4022346 31.0546875,89.8659218 C34.140625,92.6815642 37.109375,93.7765363 48.359375,96.2011173 C53.515625,97.2960894 56.1328125,98.3910615 57.96875,100.268156 C60.4296875,102.731844 59.5703125,104.061453 53.90625,106.446927 C47.734375,109.027933 42.3828125,109.77095 36.640625,108.832402 C25.390625,106.994413 16.5625,101.24581 9.3359375,91.1564246 C-0.5859375,77.2346369 -2.65625,61.7486034 3.4375,47.5139665 C14.9609375,20.6480447 58.359375,2.93296089 119.296875,0.234636872 C151.25,-1.17318436 191.523438,4.30167598 212.1875,12.8268156 C219.726562,15.9162011 223.789062,18.3798883 232.96875,25.3798883 C235.9375,27.6480447 242.070312,30.698324 245.039062,31.3631285 C248.320312,32.1452514 252.539062,32.2625698 253.789062,31.5977654 C254.296875,31.3240223 256.210938,29.9944134 258.085938,28.6256983 C289.570312,5.59217877 356.875,-5.27932961 415.15625,3.24581006 C441.09375,7.03910615 462.734375,14.6256983 477.65625,25.2234637 C482.265625,28.4692737 489.296875,35.4692737 492.03125,39.4581006 C501.289062,53.027933 502.382812,67.3407821 495.234375,81.6145251 C491.484375,89.0837989 485.117188,96.7877095 478.476562,101.793296 C474.6875,104.687151 467.695312,108.24581 464.179688,109.145251 C456.601562,111.061453 450,109.77095 445.15625,105.469274 C443.125,103.670391 440.9375,100.620112 440.9375,99.5251397 C440.9375,97.9608939 446.015625,96.3575419 457.578125,94.1675978 C464.0625,92.9553073 466.953125,91.8603352 469.375,89.6703911 C473.28125,86.1117318 474.023438,79.7374302 471.171875,74.0670391 C470,71.7988827 465.546875,67.027933 461.757812,63.9776536 C453.632812,57.5251397 444.296875,56.1173184 433.320312,59.7932961 C429.53125,61.0446927 422.578125,64.5642458 418.632812,67.2234637 C413.984375,70.3519553 398.554688,82.0837989 379.21875,97.2178771 C370.9375,103.709497 361.40625,110.98324 358.046875,113.407821 C338.007812,127.681564 321.679688,135.346369 304.804688,138.357542 C300.429688,139.139665 298.476562,139.256983 290.742188,139.256983 C283.90625,139.256983 280.859375,139.100559 278.046875,138.553073 C269.0625,136.910615 260.429688,134.094972 252.304688,130.223464 C246.367188,127.368715 245.820312,127.368715 240.546875,130.223464 C232.617188,134.486034 222.265625,137.96648 214.296875,139.061453 C209.84375,139.687151 202.148438,139.882682 198.28125,139.49162 Z" id="Path"></path>
            </g>
        </g>
        <g id="15760268471579436505" transform="translate(71.000000, 15.000000)" fill-rule="nonzero">
            <g id="Group" transform="translate(26.000000, 84.000000)" fill="#FFC850">
                <path d="M237.001866,124.501404 C235.073479,124.501404 233.142281,124.007022 231.412074,123.016854 C201.43212,105.898174 169.400092,75.684691 169.400092,42.2275281 C169.400092,19.3061798 188.063422,0.656601124 211.001671,0.656601124 C220.53538,0.656601124 229.709274,4.00421348 237.001164,9.84269663 C244.293053,4.00421348 253.466947,0.656601124 263.000657,0.656601124 C285.938906,0.656601124 304.602235,19.3061798 304.602235,42.2275281 C304.602235,75.684691 272.570207,105.898174 242.590253,123.016854 C240.860749,124.007022 238.930253,124.501404 237.001866,124.501404 Z" id="Path"></path>
                <path d="M67.9981336,124.501404 C66.0697465,124.501404 64.1385484,124.007022 62.4090438,123.016854 C32.4290899,105.898174 0.397062212,75.684691 0.397062212,42.2275281 C0.397062212,19.3061798 19.0603917,0.656601124 41.9986406,0.656601124 C51.5323502,0.656601124 60.7062442,4.00421348 67.9981336,9.84269663 C75.290023,4.00421348 84.4639171,0.656601124 93.9976267,0.656601124 C116.935876,0.656601124 135.599205,19.3061798 135.599205,42.2275281 C135.599205,75.684691 103.567177,105.898174 73.5872235,123.016854 C71.8577189,124.007022 69.9265207,124.501404 67.9981336,124.501404 Z" id="Path"></path>
            </g>
            <path d="M67.8279639,106 C57.4470131,106 49,114.554072 49,125.066593 C49,143.192259 66.6545557,165.960721 93.5,183 C120.345444,165.960721 138,143.192259 138,125.066593 C138,114.554072 129.552987,106 119.172036,106 C112.520178,106 106.487985,109.4763 103.03854,115.296835 C101.028965,118.690918 97.4081227,120.767422 93.5,120.767422 C89.5911834,120.767422 85.9710349,118.690918 83.9614605,115.296835 C80.5120148,109.477002 74.479128,106 67.8279639,106 Z" id="Path" fill="#ABFFDB"></path>
            <path d="M119.171489,106 C112.519683,106 106.487537,109.443547 103.038118,115.209244 C101.028559,118.571349 97.4077453,120.628289 93.499653,120.628289 C89.5908669,120.628289 85.9707467,118.571349 83.9611879,115.209244 C80.5117692,109.444243 74.4796233,106 67.8278172,106 C57.4469472,106 49,114.473479 49,124.886955 C49,129.965613 50.4572077,135.417374 53.0905901,141 C60.4425498,139.127523 65.6878036,132.565502 65.6878036,124.886955 C65.6878036,122.903801 68.5723809,122.028818 69.6534902,123.813588 C74.6454674,132.174997 83.7821595,137.368509 93.500347,137.368509 C103.218534,137.368509 112.355227,132.178477 117.352755,123.819156 C118.41721,122.015592 121.318442,122.903801 121.31289,124.886955 C121.31289,129.630099 123.328,134.1672 126.837095,137.32744 C128.84596,139.143533 131.301702,140.319226 133.914961,140.986774 C136.544874,135.409021 138,129.962133 138,124.886955 C138,114.473479 129.552359,106 119.171489,106 Z" id="Path" fill="#FFFFFF"></path>
            <path d="M236.827964,106 C226.447013,106 218,114.554072 218,125.066593 C218,143.192259 235.654556,165.960721 262.5,183 C289.345444,165.960721 307,143.192259 307,125.066593 C307,114.554072 298.552987,106 288.172036,106 C281.520178,106 275.487985,109.4763 272.03854,115.296835 C270.028965,118.690918 266.408123,120.767422 262.5,120.767422 C258.591877,120.767422 254.971035,118.690918 252.96146,115.296835 C249.512015,109.477002 243.479128,106 236.827964,106 Z" id="Path" fill="#ABFFDB"></path>
            <path d="M288.171489,106 C281.519683,106 275.487537,109.443547 272.038118,115.209244 C270.028559,118.571349 266.407745,120.628289 262.499653,120.628289 C258.591561,120.628289 254.970747,118.571349 252.961188,115.209244 C249.511769,109.444243 243.479623,106 236.827817,106 C226.446947,106 218,114.473479 218,124.886955 C218,129.965613 219.457208,135.417374 222.09059,141 C229.44255,139.127523 234.687804,132.565502 234.687804,124.886955 C234.687804,122.903801 237.572381,122.028818 238.65349,123.813588 C243.645467,132.174997 252.78216,137.368509 262.500347,137.368509 C272.218534,137.368509 281.355227,132.178477 286.352755,123.819156 C287.41721,122.015592 290.318442,122.903801 290.31289,124.886955 C290.31289,129.630099 292.328,134.1672 295.837095,137.32744 C297.846654,139.143533 300.301702,140.319226 302.914961,140.986774 C305.544874,135.409021 307,129.962133 307,124.886955 C307,114.473479 298.552359,106 288.171489,106 Z" id="Path" fill="#FFFFFF"></path>
            <path d="M350.87482,28.6978059 L323.735963,1.54130093 C321.682932,-0.513766976 318.353066,-0.513766976 316.299334,1.54130093 C314.245602,3.59636883 314.245602,6.92839937 316.299334,8.98276565 L343.438191,36.1392707 C346.691629,39.3948238 348.483123,43.7224642 348.483123,48.326546 L348.483123,106.499912 C348.483123,109.801071 345.799037,112.486201 342.500725,112.486201 L334.65391,112.486201 C328.992648,93.0153271 311.012498,78.7400074 289.752266,78.7400074 C280.563408,78.7400074 271.49375,81.5303812 263.81101,86.664192 C256.128971,81.5310829 247.058611,78.7400074 237.870455,78.7400074 C218.515307,78.7400074 201.869486,90.5673476 194.76942,107.37835 C190.795879,103.578334 185.417891,101.237002 179.500701,101.237002 C173.583512,101.237002 168.205523,103.578334 164.231982,107.37835 C157.131916,90.5673476 140.486096,78.7400074 121.130947,78.7400074 C111.942791,78.7400074 102.872432,81.5310829 95.1903926,86.664192 C87.5076523,81.5303812 78.4386953,78.7400074 69.2491367,78.7400074 C47.9889043,78.7400074 30.0087539,93.0153271 24.3474922,112.486201 L16.4999766,112.486201 C13.2009629,112.486201 10.5175781,109.80037 10.5175781,106.499912 L10.5175781,48.326546 C10.5175781,43.7231658 12.3090723,39.3948238 15.5625098,36.1392707 L42.7013672,8.98276565 C44.7550996,6.92769775 44.7550996,3.5956672 42.7013672,1.54130093 C40.6476348,-0.513766976 37.3177695,-0.513766976 35.2647383,1.54130093 L8.12588086,28.6978059 C2.88532227,33.9410707 0,40.9117431 0,48.326546 L0,106.499912 C0,115.604235 7.40227148,123.010618 16.4999766,123.010618 L22.5524922,123.010618 C22.5076172,123.84766 22.482375,124.688912 22.482375,125.53718 C22.482375,161.217762 55.8118789,192.988873 87.0007051,210.822147 C89.4884629,212.247153 92.3204961,213 95.1896914,213 C98.0588867,213 100.890219,212.247153 103.375172,210.82355 C134.389406,193.089206 167.512766,161.576995 167.887893,126.143387 C167.889996,126.08445 167.897008,126.027618 167.897008,125.968681 L167.897008,123.372658 C167.897008,116.970304 173.101807,111.762121 179.5,111.762121 C185.898193,111.762121 191.102992,116.971006 191.102992,123.372658 L191.102992,125.968681 C191.102992,126.027618 191.110004,126.085151 191.112107,126.143387 C191.487234,161.576995 224.609893,193.089907 255.624828,210.82355 C258.112586,212.247153 260.942516,213 263.810309,213 C266.679504,213 269.510836,212.247153 271.99649,210.82355 C303.188121,192.988171 336.517625,161.21706 336.517625,125.536478 C336.517625,124.688912 336.492383,123.846959 336.447508,123.009917 L342.500725,123.009917 C351.597729,123.010618 359,115.604235 359,106.499912 L359,48.326546 C359,40.9117431 356.114678,33.9410707 350.87482,28.6978059 Z M98.1542461,201.688356 C96.3543379,202.719047 94.0278496,202.721152 92.222332,201.686251 C76.2699707,192.564388 61.7984844,180.820541 51.4737285,168.617129 C39.2158418,154.128514 32.9999531,139.634286 32.9999531,125.53718 C32.9999531,105.536577 49.2608301,89.2651264 69.2484355,89.2651264 C77.4037656,89.2651264 85.4483105,92.114437 91.9011953,97.2875389 C93.8224063,98.8283136 96.5562754,98.8283136 98.4774863,97.2875389 C104.930371,92.114437 112.974916,89.2651264 121.130246,89.2651264 C141.117852,89.2651264 157.378729,105.536577 157.378729,125.53718 C157.378729,139.634286 151.163541,154.128514 138.904953,168.617129 C128.580898,180.820541 114.110113,192.564388 98.1542461,201.688356 Z M307.526271,168.617129 C297.201516,180.820541 282.73073,192.564388 266.774863,201.687655 C264.974955,202.718346 262.645662,202.718346 260.845053,201.687655 C260.844352,201.686953 260.842949,201.686251 260.842248,201.68555 C244.889887,192.563686 230.4184,180.81984 220.093645,168.616427 C207.835758,154.127812 201.619869,139.633585 201.619869,125.536478 C201.619869,105.535876 217.880746,89.2644248 237.868352,89.2644248 C246.023682,89.2644248 254.068227,92.1137354 260.521111,97.2868373 C262.442322,98.827612 265.17549,98.827612 267.097402,97.2868373 C273.550287,92.1137354 281.594832,89.2644248 289.750162,89.2644248 C309.737768,89.2644248 325.998645,105.535876 325.998645,125.536478 C325.998645,139.634286 319.784158,154.128514 307.526271,168.617129 Z" id="Shape" fill="#474D54"></path>
        </g>
    </g>
</svg>