<?xml version="1.0" encoding="UTF-8"?>
<svg width="500px" height="414px" viewBox="0 0 500 414" version="1.1" xmlns="http://www.w3.org/2000/svg" xmlns:xlink="http://www.w3.org/1999/xlink">
    <title>Artboard</title>
    <g id="Artboard" stroke="none" stroke-width="1" fill="none" fill-rule="evenodd">
        <g id="2023997" transform="translate(0.000000, 274.000000)" fill="#000000" fill-rule="nonzero">
            <g id="Group" transform="translate(250.039062, 70.019553) scale(-1, 1) rotate(-180.000000) translate(-250.039062, -70.019553) translate(0.078125, 0.156425)">
                <path d="M198.28125,139.49162 C184.609375,138.044693 170.9375,132.608939 156.132812,122.636872 C147.851562,117.083799 140.429688,111.217877 124.726562,97.8435754 C108.085938,83.6871508 100.351562,77.8994413 90.15625,72.150838 C78.3984375,65.4636872 69.6484375,61.8659218 59.375,59.4413408 C55.46875,58.5418994 53.9453125,58.3854749 49.140625,58.3854749 C44.296875,58.3854749 43.125,58.5027933 41.171875,59.2458101 C37.6953125,60.5363128 35.8203125,61.7877095 33.3984375,64.4078212 C29.609375,68.4748603 27.5390625,74.1843575 27.5,80.4413408 C27.4609375,84.9776536 28.3984375,87.4022346 31.0546875,89.8659218 C34.140625,92.6815642 37.109375,93.7765363 48.359375,96.2011173 C53.515625,97.2960894 56.1328125,98.3910615 57.96875,100.268156 C60.4296875,102.731844 59.5703125,104.061453 53.90625,106.446927 C47.734375,109.027933 42.3828125,109.77095 36.640625,108.832402 C25.390625,106.994413 16.5625,101.24581 9.3359375,91.1564246 C-0.5859375,77.2346369 -2.65625,61.7486034 3.4375,47.5139665 C14.9609375,20.6480447 58.359375,2.93296089 119.296875,0.234636872 C151.25,-1.17318436 191.523438,4.30167598 212.1875,12.8268156 C219.726562,15.9162011 223.789062,18.3798883 232.96875,25.3798883 C235.9375,27.6480447 242.070312,30.698324 245.039062,31.3631285 C248.320312,32.1452514 252.539062,32.2625698 253.789062,31.5977654 C254.296875,31.3240223 256.210938,29.9944134 258.085938,28.6256983 C289.570312,5.59217877 356.875,-5.27932961 415.15625,3.24581006 C441.09375,7.03910615 462.734375,14.6256983 477.65625,25.2234637 C482.265625,28.4692737 489.296875,35.4692737 492.03125,39.4581006 C501.289062,53.027933 502.382812,67.3407821 495.234375,81.6145251 C491.484375,89.0837989 485.117188,96.7877095 478.476562,101.793296 C474.6875,104.687151 467.695312,108.24581 464.179688,109.145251 C456.601562,111.061453 450,109.77095 445.15625,105.469274 C443.125,103.670391 440.9375,100.620112 440.9375,99.5251397 C440.9375,97.9608939 446.015625,96.3575419 457.578125,94.1675978 C464.0625,92.9553073 466.953125,91.8603352 469.375,89.6703911 C473.28125,86.1117318 474.023438,79.7374302 471.171875,74.0670391 C470,71.7988827 465.546875,67.027933 461.757812,63.9776536 C453.632812,57.5251397 444.296875,56.1173184 433.320312,59.7932961 C429.53125,61.0446927 422.578125,64.5642458 418.632812,67.2234637 C413.984375,70.3519553 398.554688,82.0837989 379.21875,97.2178771 C370.9375,103.709497 361.40625,110.98324 358.046875,113.407821 C338.007812,127.681564 321.679688,135.346369 304.804688,138.357542 C300.429688,139.139665 298.476562,139.256983 290.742188,139.256983 C283.90625,139.256983 280.859375,139.100559 278.046875,138.553073 C269.0625,136.910615 260.429688,134.094972 252.304688,130.223464 C246.367188,127.368715 245.820312,127.368715 240.546875,130.223464 C232.617188,134.486034 222.265625,137.96648 214.296875,139.061453 C209.84375,139.687151 202.148438,139.882682 198.28125,139.49162 Z" id="Path"></path>
            </g>
        </g>
        <g id="4822289181579605507" transform="translate(92.000000, 4.000000)" fill="#0E1D25" fill-rule="nonzero">
            <path d="M248.081543,228.842907 C225.551512,228.866805 204.388347,218.047629 191.223936,199.775778 C178.059525,181.503927 174.504658,158.015136 181.673321,136.67007 C168.328122,126.254461 149.601403,126.254461 136.256204,136.67007 C146.035615,165.561585 135.94821,197.454497 111.329262,215.480499 C86.7103138,233.5065 53.240088,233.5065 28.6211401,215.480499 C4.00219211,197.454497 -6.08521359,165.561585 3.69419803,136.67007 L36.2622148,18.6888374 C39.287189,7.68879766 49.2729445,0.0484936175 60.6882274,0 L89.0580233,0 L89.0580233,12.7134948 L60.6882274,12.7134948 C54.7742214,12.5110511 49.5014207,16.4103513 47.9663458,22.121481 L25.4486155,104.886332 C41.4681675,91.7531379 62.4885258,86.3907863 82.8470348,90.2438368 C103.205544,94.0968872 120.808191,106.769027 130.913014,124.846519 C147.82317,113.430081 169.979136,113.430081 186.889292,124.846519 C197.121948,106.532622 215.053752,93.788572 235.723125,90.1405401 C256.392499,86.4925083 277.6077,92.3273255 293.49866,106.030547 L272.253118,22.121481 C270.83279,16.8156745 266.163576,13.0212343 260.676205,12.7134948 L228.99872,12.7134948 L228.99872,0 L260.676205,0 C271.949307,0.217463207 281.734733,7.82333262 284.720562,18.6888374 L315.125858,139.085634 C321.383198,160.22679 317.297072,183.078901 304.100504,200.74614 C290.903937,218.413379 270.142649,228.826372 248.081543,228.842907 Z M248.081543,101.707959 C216.464087,101.707959 190.833076,127.322074 190.833076,158.918686 C190.833076,190.515298 216.464087,216.129412 248.081543,216.129412 C279.698998,216.129412 305.330087,190.515298 305.330087,158.918686 C305.336367,155.033703 304.952791,151.157878 304.18504,147.349405 L302.912852,142.391142 C295.580829,118.253001 273.323897,101.739026 248.081543,101.707959 Z M13.8717033,147.349405 C7.83627522,177.593756 26.8753269,207.175892 56.9170582,214.2316 C86.9587895,221.287308 117.190316,203.277036 125.267458,173.51221 C133.3446,143.747384 116.360161,112.941222 86.8673736,103.862619 C57.3745858,94.7840164 25.9887526,110.700623 15.9072043,139.848443 L13.8717033,147.349405 Z" id="Glasses"></path>
        </g>
    </g>
</svg>