
<svg width="500px" height="414px" viewBox="0 0 500 414" version="1.1" xmlns="http://www.w3.org/2000/svg" xmlns:xlink="http://www.w3.org/1999/xlink">
    <title>Artboard</title>
    <g id="Artboard" stroke="none" stroke-width="1" fill="none" fill-rule="evenodd">
        <g id="2023997" transform="translate(0.000000, 274.000000)" fill="#000000" fill-rule="nonzero">
            <g id="Group" transform="translate(250.039062, 70.019553) scale(-1, 1) rotate(-180.000000) translate(-250.039062, -70.019553) translate(0.078125, 0.156425)">
                <path d="M198.28125,139.49162 C184.609375,138.044693 170.9375,132.608939 156.132812,122.636872 C147.851562,117.083799 140.429688,111.217877 124.726562,97.8435754 C108.085938,83.6871508 100.351562,77.8994413 90.15625,72.150838 C78.3984375,65.4636872 69.6484375,61.8659218 59.375,59.4413408 C55.46875,58.5418994 53.9453125,58.3854749 49.140625,58.3854749 C44.296875,58.3854749 43.125,58.5027933 41.171875,59.2458101 C37.6953125,60.5363128 35.8203125,61.7877095 33.3984375,64.4078212 C29.609375,68.4748603 27.5390625,74.1843575 27.5,80.4413408 C27.4609375,84.9776536 28.3984375,87.4022346 31.0546875,89.8659218 C34.140625,92.6815642 37.109375,93.7765363 48.359375,96.2011173 C53.515625,97.2960894 56.1328125,98.3910615 57.96875,100.268156 C60.4296875,102.731844 59.5703125,104.061453 53.90625,106.446927 C47.734375,109.027933 42.3828125,109.77095 36.640625,108.832402 C25.390625,106.994413 16.5625,101.24581 9.3359375,91.1564246 C-0.5859375,77.2346369 -2.65625,61.7486034 3.4375,47.5139665 C14.9609375,20.6480447 58.359375,2.93296089 119.296875,0.234636872 C151.25,-1.17318436 191.523438,4.30167598 212.1875,12.8268156 C219.726562,15.9162011 223.789062,18.3798883 232.96875,25.3798883 C235.9375,27.6480447 242.070312,30.698324 245.039062,31.3631285 C248.320312,32.1452514 252.539062,32.2625698 253.789062,31.5977654 C254.296875,31.3240223 256.210938,29.9944134 258.085938,28.6256983 C289.570312,5.59217877 356.875,-5.27932961 415.15625,3.24581006 C441.09375,7.03910615 462.734375,14.6256983 477.65625,25.2234637 C482.265625,28.4692737 489.296875,35.4692737 492.03125,39.4581006 C501.289062,53.027933 502.382812,67.3407821 495.234375,81.6145251 C491.484375,89.0837989 485.117188,96.7877095 478.476562,101.793296 C474.6875,104.687151 467.695312,108.24581 464.179688,109.145251 C456.601562,111.061453 450,109.77095 445.15625,105.469274 C443.125,103.670391 440.9375,100.620112 440.9375,99.5251397 C440.9375,97.9608939 446.015625,96.3575419 457.578125,94.1675978 C464.0625,92.9553073 466.953125,91.8603352 469.375,89.6703911 C473.28125,86.1117318 474.023438,79.7374302 471.171875,74.0670391 C470,71.7988827 465.546875,67.027933 461.757812,63.9776536 C453.632812,57.5251397 444.296875,56.1173184 433.320312,59.7932961 C429.53125,61.0446927 422.578125,64.5642458 418.632812,67.2234637 C413.984375,70.3519553 398.554688,82.0837989 379.21875,97.2178771 C370.9375,103.709497 361.40625,110.98324 358.046875,113.407821 C338.007812,127.681564 321.679688,135.346369 304.804688,138.357542 C300.429688,139.139665 298.476562,139.256983 290.742188,139.256983 C283.90625,139.256983 280.859375,139.100559 278.046875,138.553073 C269.0625,136.910615 260.429688,134.094972 252.304688,130.223464 C246.367188,127.368715 245.820312,127.368715 240.546875,130.223464 C232.617188,134.486034 222.265625,137.96648 214.296875,139.061453 C209.84375,139.687151 202.148438,139.882682 198.28125,139.49162 Z" id="Path"></path>
            </g>
        </g>
        <g id="4864743661582967212" transform="translate(71.000000, 100.000000)" fill="#2D3E50" fill-rule="nonzero">
            <path d="M354.641201,0.00134385531 L224.087813,0.00134385531 C215.543056,-0.0765844809 207.31678,3.23749628 201.21622,9.21551385 C197.537091,12.8858475 194.820761,17.4060623 193.307843,22.3757566 C184.533569,20.8195244 175.539142,20.9955562 166.832602,22.8939091 C165.359346,17.7240665 162.588825,13.0158482 158.783723,9.21565671 C152.683168,3.23763112 144.456889,-0.0764510399 135.912129,0.00148671509 L5.35879899,0.00148671509 C2.39921603,0.00148671509 0,2.39850884 0,5.35538549 L0,20.4692358 C0,22.1293869 0.770805335,23.6956247 2.08674664,24.709314 L11.9905855,32.3383404 L11.9905855,81.4760184 C11.9905855,98.8862327 26.1172706,113 43.5434198,113 L126.719726,113 C141.801533,112.976012 154.765375,102.309675 157.680922,87.5258729 L166.580653,42.0241763 C175.235637,39.34573 184.455676,39.062599 193.258969,41.2049326 L202.31902,87.5257872 C205.234536,102.309644 218.198419,112.976031 233.280274,113 L316.45658,113 C333.882729,113 348.009414,98.8862327 348.009414,81.4760184 L348.009414,32.3381404 L357.913253,24.709114 C359.229195,23.6954247 360,22.1291869 360,20.4690358 L360,5.35524263 C360,2.39836598 357.600784,0.00134385531 354.641201,0.00134385531 Z M149.305052,34.0284288 L139.533079,83.9790646 C138.330149,90.1003776 132.963607,94.5181447 126.719726,94.5270878 L43.5434198,94.5270878 C36.3326433,94.5180676 30.4894052,88.6801726 30.4803767,81.4759898 L30.4803767,31.5253254 C30.4894052,24.3211427 36.3326433,18.4832477 43.5434198,18.4742221 L136.482261,18.4742221 C140.387178,18.4706631 144.088659,20.2136761 146.571236,23.2250856 C149.053813,26.2364951 150.056785,30.200067 149.304995,34.0284288 L149.305052,34.0284288 Z M329.519681,32.3381404 L329.519681,81.4760184 C329.510595,88.6802012 323.667357,94.5180961 316.45658,94.5271163 L233.280274,94.5271163 C227.036341,94.5182251 221.669733,90.1004311 220.466807,83.9790646 L210.694834,34.0284288 C209.943048,30.2000418 210.946045,26.2364483 213.42866,23.2250388 C215.911275,20.2136293 219.612799,18.470642 223.517739,18.4742505 L316.456637,18.4742505 C323.667414,18.4832763 329.510652,24.3211713 329.519681,31.525354 L329.519681,32.3381404 Z" id="Shape"></path>
        </g>
    </g>
</svg>