<?xml version="1.0" encoding="UTF-8"?>
<svg width="500px" height="414px" viewBox="0 0 500 414" version="1.1" xmlns="http://www.w3.org/2000/svg" xmlns:xlink="http://www.w3.org/1999/xlink">
    <title>Artboard</title>
    <g id="Artboard" stroke="none" stroke-width="1" fill="none" fill-rule="evenodd">
        <g id="2023997" transform="translate(0.000000, 274.000000)" fill="#000000" fill-rule="nonzero">
            <g id="Group" transform="translate(250.039062, 70.019553) scale(-1, 1) rotate(-180.000000) translate(-250.039062, -70.019553) translate(0.078125, 0.156425)">
                <path d="M198.28125,139.49162 C184.609375,138.044693 170.9375,132.608939 156.132812,122.636872 C147.851562,117.083799 140.429688,111.217877 124.726562,97.8435754 C108.085938,83.6871508 100.351562,77.8994413 90.15625,72.150838 C78.3984375,65.4636872 69.6484375,61.8659218 59.375,59.4413408 C55.46875,58.5418994 53.9453125,58.3854749 49.140625,58.3854749 C44.296875,58.3854749 43.125,58.5027933 41.171875,59.2458101 C37.6953125,60.5363128 35.8203125,61.7877095 33.3984375,64.4078212 C29.609375,68.4748603 27.5390625,74.1843575 27.5,80.4413408 C27.4609375,84.9776536 28.3984375,87.4022346 31.0546875,89.8659218 C34.140625,92.6815642 37.109375,93.7765363 48.359375,96.2011173 C53.515625,97.2960894 56.1328125,98.3910615 57.96875,100.268156 C60.4296875,102.731844 59.5703125,104.061453 53.90625,106.446927 C47.734375,109.027933 42.3828125,109.77095 36.640625,108.832402 C25.390625,106.994413 16.5625,101.24581 9.3359375,91.1564246 C-0.5859375,77.2346369 -2.65625,61.7486034 3.4375,47.5139665 C14.9609375,20.6480447 58.359375,2.93296089 119.296875,0.234636872 C151.25,-1.17318436 191.523438,4.30167598 212.1875,12.8268156 C219.726562,15.9162011 223.789062,18.3798883 232.96875,25.3798883 C235.9375,27.6480447 242.070312,30.698324 245.039062,31.3631285 C248.320312,32.1452514 252.539062,32.2625698 253.789062,31.5977654 C254.296875,31.3240223 256.210938,29.9944134 258.085938,28.6256983 C289.570312,5.59217877 356.875,-5.27932961 415.15625,3.24581006 C441.09375,7.03910615 462.734375,14.6256983 477.65625,25.2234637 C482.265625,28.4692737 489.296875,35.4692737 492.03125,39.4581006 C501.289062,53.027933 502.382812,67.3407821 495.234375,81.6145251 C491.484375,89.0837989 485.117188,96.7877095 478.476562,101.793296 C474.6875,104.687151 467.695312,108.24581 464.179688,109.145251 C456.601562,111.061453 450,109.77095 445.15625,105.469274 C443.125,103.670391 440.9375,100.620112 440.9375,99.5251397 C440.9375,97.9608939 446.015625,96.3575419 457.578125,94.1675978 C464.0625,92.9553073 466.953125,91.8603352 469.375,89.6703911 C473.28125,86.1117318 474.023438,79.7374302 471.171875,74.0670391 C470,71.7988827 465.546875,67.027933 461.757812,63.9776536 C453.632812,57.5251397 444.296875,56.1173184 433.320312,59.7932961 C429.53125,61.0446927 422.578125,64.5642458 418.632812,67.2234637 C413.984375,70.3519553 398.554688,82.0837989 379.21875,97.2178771 C370.9375,103.709497 361.40625,110.98324 358.046875,113.407821 C338.007812,127.681564 321.679688,135.346369 304.804688,138.357542 C300.429688,139.139665 298.476562,139.256983 290.742188,139.256983 C283.90625,139.256983 280.859375,139.100559 278.046875,138.553073 C269.0625,136.910615 260.429688,134.094972 252.304688,130.223464 C246.367188,127.368715 245.820312,127.368715 240.546875,130.223464 C232.617188,134.486034 222.265625,137.96648 214.296875,139.061453 C209.84375,139.687151 202.148438,139.882682 198.28125,139.49162 Z" id="Path"></path>
            </g>
        </g>
        <g id="2072032621539681114" transform="translate(64.000000, 84.000000)" fill="#000000" fill-rule="nonzero">
            <path d="M99.2869356,0 C73.9006949,0 51.5243077,13.0486405 38.5138912,32.7613627 L7.64569041,32.7613627 C3.42399502,32.7613627 0,36.1753547 0,40.3847165 C0,44.5940783 3.42399502,48.0080702 7.64569041,48.0080702 L30.8541836,48.0080702 C28.0902666,55.663188 26.5738713,63.907845 26.5738713,72.4993647 C26.5738713,112.476232 59.1929351,145 99.2869356,145 C139.380936,145 172,112.476232 172,72.4993647 C172,32.5224977 139.380936,0 99.2869356,0 Z M99.2869356,129.753293 C67.6248574,129.753293 41.8652521,104.068943 41.8652521,72.4993647 C41.8652521,40.9297863 67.6248574,15.2454369 99.2869356,15.2454369 C130.949014,15.2454369 156.708619,40.9297863 156.708619,72.4993647 C156.708619,104.068943 130.949014,129.753293 99.2869356,129.753293 Z" id="Shape"></path>
            <path d="M365.361518,32.7607886 L330.930432,32.7607886 C327.244205,27.1526396 322.781529,22.0285652 317.61623,17.5816867 C304.448408,6.24341731 287.608361,0 270.198069,0 C244.190825,0 221.344113,13.7230668 208.512328,34.2867032 C202.942256,27.1780504 194.277842,22.5952245 184.555675,22.5952245 C179.461656,22.5952245 174.418552,23.8797371 169.972423,26.3077327 C166.272195,28.3291566 164.914045,32.9615334 166.939178,36.6562541 C168.963039,40.3484337 173.603916,41.7028258 177.305417,39.683943 C179.541847,38.4616867 181.980662,37.8429354 184.555675,37.8429354 C192.900599,37.8429354 199.690078,44.6199781 199.690078,52.9496166 C199.690078,53.4679956 199.743539,53.9749398 199.841549,54.4653669 C198.356112,60.2336035 197.565661,66.276276 197.565661,72.5006353 C197.565661,112.476802 230.148542,145 270.198069,145 C300.267035,145 327.58788,126.135071 338.187053,98.0587514 C339.673764,94.1188171 337.680452,89.7214896 333.732015,88.2387733 C329.786123,86.7522453 325.379453,88.7431763 323.892743,92.6843812 C315.523634,114.856517 293.945972,129.75483 270.198069,129.75483 C238.571112,129.75483 212.84008,104.070931 212.84008,72.5019058 C212.84008,40.9328806 238.571112,15.2489814 270.198069,15.2489814 C298.618671,15.2489814 322.446765,35.5508872 326.85598,63.523023 C327.511507,67.6814896 331.41794,70.5211391 335.587856,69.8680832 C339.753954,69.2137568 342.600088,65.3119387 341.945833,61.1534721 C341.236846,56.6532311 340.088719,52.2571742 338.560004,48.00977 L365.362791,48.00977 C369.579803,48.00977 373,44.5958379 373,40.3865498 C373,36.1772618 369.579803,32.7607886 365.361518,32.7607886 Z" id="Path"></path>
        </g>
    </g>
</svg>